<svg xmlns="http://www.w3.org/2000/svg" width="17" height="3" fill="none" viewBox="0 0 17 3"><mask id="a" fill="#fff"><path d="M2.053 2.636c1.715 0 3.26 0 4.975-.252.858 0 .686-2.02-.172-2.02-1.544.252-3.088.252-4.632.252s-1.029 2.02 0 2.02Z"/></mask><mask id="b" fill="#fff"><path d="M10.8 2.384c1.202.252 2.403.252 3.603.252s1.03-2.02 0-2.02c-1.2 0-2.401 0-3.602-.252-.858 0-1.03 1.767 0 2.02"/></mask><g fill="#F5E1CB"><path d="M2.053 2.636c1.715 0 3.26 0 4.975-.252.858 0 .686-2.02-.172-2.02-1.544.252-3.088.252-4.632.252s-1.029 2.02 0 2.02Z"/><path d="M7.028 2.384v-5.05h-.37l-.365.054ZM6.856.364v-5.05h-.41l-.404.067ZM2.053 2.636v5.05c1.675 0 3.576.007 5.71-.307l-.735-4.995-.735-4.996c-1.297.191-2.484.199-4.24.199Zm4.975-.252v5.05c2.673-.001 4.324-1.76 5.005-3.176.599-1.243.655-2.468.584-3.312a6.6 6.6 0 0 0-1.02-3.022c-.702-1.078-2.26-2.61-4.74-2.61v10.1a4.45 4.45 0 0 1-3.722-1.978 3.5 3.5 0 0 1-.58-1.634c-.03-.34-.037-1.06.379-1.924.5-1.037 1.85-2.544 4.094-2.544ZM6.856.364 6.042-4.62c-1.074.175-2.208.186-3.818.186v10.1c1.479-.001 3.432.01 5.447-.32ZM2.224.616v-5.05c-1.53.001-3.397.549-4.725 2.195-1.235 1.53-1.405 3.277-1.248 4.503a6.36 6.36 0 0 0 1.554 3.417c.891 1 2.403 2.004 4.42 2.004v-10.1c1.5.002 2.563.754 3.116 1.375.532.595.835 1.3.927 2.028a4.15 4.15 0 0 1-.91 3.115C4.335 5.37 2.982 5.666 2.224 5.666Zm0 2.02v-5.05h-.172v10.1h.172Z" mask="url(#a)"/><path d="M10.8 2.384c1.202.252 2.403.252 3.603.252s1.03-2.02 0-2.02c-1.2 0-2.401 0-3.602-.252-.858 0-1.03 1.767 0 2.02"/><path d="M10.8 2.384 9.599 7.288l.082.02.082.017Zm0-2.02 1.04-4.941-.514-.108H10.8Zm0 2.02-1.038 4.94c1.798.379 3.522.361 4.642.361v-10.1c-1.283.002-1.96-.016-2.564-.143Zm3.603.252v5.05c1.916 0 3.656-.9 4.746-2.41.955-1.323 1.182-2.773 1.136-3.864a6.3 6.3 0 0 0-1.24-3.51c-.92-1.227-2.524-2.335-4.642-2.335v10.1c-1.602-.001-2.8-.857-3.435-1.705a3.8 3.8 0 0 1-.773-2.122 3.95 3.95 0 0 1 .766-2.476 4.29 4.29 0 0 1 3.443-1.778Zm0-2.02v-5.05c-1.282.001-1.96-.016-2.563-.143L10.8.363 9.763 5.306c1.798.378 3.522.36 4.642.36ZM10.802.364v-5.05c-2.183 0-3.766 1.2-4.622 2.404A6.25 6.25 0 0 0 5.05 1.05c-.079 1.741.738 5.302 4.55 6.237L10.8 2.384l1.203-4.904c2.782.682 3.17 3.233 3.133 4.028a3.85 3.85 0 0 1-.728 2.063 4.44 4.44 0 0 1-3.608 1.843Z" mask="url(#b)"/></g></svg>